<svg width="189" height="256" viewBox="0 0 189 256" fill="none" xmlns="http://www.w3.org/2000/svg">
<path d="M128 14H113.2C78.4767 14 61.1151 14 47.8526 20.7576C36.1865 26.7017 26.7017 36.1865 20.7576 47.8526C14 61.1151 14 78.4768 14 113.2V142.8C14 177.523 14 194.885 20.7576 208.147C26.7017 219.813 36.1865 229.298 47.8526 235.242C61.1151 242 78.4767 242 113.2 242H128" stroke="#B4B4B4" stroke-width="28" stroke-linecap="round"/>
<path d="M78 125.5H172.701C174.402 125.5 175.326 127.488 174.231 128.788L137 173" stroke="#B4B4B4" stroke-width="28" stroke-linecap="round"/>
<path d="M78 128.5H172.701C174.402 128.5 175.326 126.512 174.231 125.212L137 81" stroke="#B4B4B4" stroke-width="28" stroke-linecap="round"/>
</svg>
