<svg width="36" height="38" viewBox="0 0 36 38" fill="none" xmlns="http://www.w3.org/2000/svg">
<path d="M2 18.9927C2 16.5762 2 15.368 2.32404 14.2644C2.61099 13.2871 3.08191 12.3736 3.71151 11.573C4.42251 10.6689 5.4067 9.968 7.37508 8.56626L10.5751 6.28747C13.2472 4.38458 14.5833 3.43313 16.0399 3.06502C17.3264 2.73991 18.6736 2.73991 19.9601 3.06502C21.4167 3.43313 22.7528 4.38458 25.4249 6.28747L28.6249 8.56626C30.5933 9.968 31.5775 10.6689 32.2885 11.573C32.9181 12.3736 33.389 13.2871 33.676 14.2644C34 15.368 34 16.5762 34 18.9927V23.2C34 27.6804 34 29.9206 33.1281 31.6319C32.3611 33.1372 31.1372 34.3611 29.6319 35.1281C27.9206 36 25.6804 36 21.2 36H14.8C10.3196 36 8.07937 36 6.36808 35.1281C4.86278 34.3611 3.63893 33.1372 2.87195 31.6319C2 29.9206 2 27.6804 2 23.2V18.9927Z" stroke="black" stroke-width="4"/>
</svg>
