<svg width="36" height="39" viewBox="0 0 36 39" fill="none" xmlns="http://www.w3.org/2000/svg">
<path d="M18.4609 36.4795H26C30.4183 36.4795 34 32.8977 34 28.4795V10.5205C34 6.10223 30.4183 2.52051 26 2.52051H15.5108C11.0925 2.52051 7.51081 6.10223 7.51081 10.5205V17.513M18.4609 36.4795H5.79329M18.4609 36.4795H14.5519M5.79329 36.4795H14.5519M5.79329 36.4795V36.4795C3.58455 36.0237 2 34.0788 2 31.8235V31.0091V23.0238C2 19.9803 4.46727 17.513 7.51081 17.513V17.513M7.51081 17.513V28.4042C7.51081 31.9158 9.80084 35.0169 13.157 36.0501L14.5519 36.4795" stroke="black" stroke-width="4"/>
</svg>
