<svg width="33" height="33" viewBox="0 0 33 33" fill="none" xmlns="http://www.w3.org/2000/svg">
<path d="M19.3338 1.81981C19.9135 1.55247 20.6015 1.74561 20.9574 2.27558L22.944 5.23392C23.4954 6.055 24.2918 6.68121 25.2197 7.02342L28.5631 8.25637C29.162 8.47725 29.512 9.10034 29.3889 9.72675L28.7018 13.2233C28.5111 14.1938 28.6314 15.1997 29.0455 16.0978L30.5378 19.3338C30.8052 19.9135 30.612 20.6015 30.0821 20.9574L27.1237 22.944C26.3026 23.4954 25.6764 24.2918 25.3342 25.2197L24.1013 28.5631C23.8804 29.162 23.2573 29.512 22.6309 29.3889L19.1343 28.7018C18.1638 28.5111 17.1579 28.6314 16.2598 29.0455L13.0238 30.5378C12.4441 30.8052 11.7561 30.612 11.4002 30.0821L9.4136 27.1237C8.86222 26.3026 8.06588 25.6764 7.13792 25.3342L3.79456 24.1013C3.1956 23.8804 2.84565 23.2573 2.96875 22.6309L3.65587 19.1343C3.84658 18.1638 3.72628 17.1579 3.3121 16.2598L1.81981 13.0238C1.55247 12.4441 1.74561 11.7561 2.27558 11.4002L5.23391 9.4136C6.055 8.86222 6.68121 8.06587 7.02342 7.13793L8.25637 3.79456C8.47725 3.1956 9.10034 2.84565 9.72675 2.96875L13.2233 3.65587C14.1938 3.84658 15.1997 3.72628 16.0979 3.3121L19.3338 1.81981Z" stroke="#BDBDBD" stroke-opacity="0.35" stroke-width="3.4"/>
<path d="M20.998 16.4998C20.998 18.985 18.9833 20.9998 16.498 20.9998C14.0128 20.9998 11.998 18.985 11.998 16.4998C11.998 14.0145 14.0128 11.9998 16.498 11.9998C18.9833 11.9998 20.998 14.0145 20.998 16.4998Z" stroke="#BDBDBD" stroke-opacity="0.35" stroke-width="3"/>
</svg>
